<svg xmlns="http://www.w3.org/2000/svg" xmlns:xlink="http://www.w3.org/1999/xlink" width="500" zoomAndPan="magnify" viewBox="0 0 375 374.999991" height="500" preserveAspectRatio="xMidYMid meet" version="1.0"><defs><g/><clipPath id="77bf605ee1"><path d="M 61.464844 136 L 115 136 L 115 190 L 61.464844 190 Z M 61.464844 136 " clip-rule="nonzero"/></clipPath><clipPath id="98ee242a7a"><path d="M 93.136719 144 L 148.332031 144 L 148.332031 196.847656 L 93.136719 196.847656 Z M 93.136719 144 " clip-rule="nonzero"/></clipPath><clipPath id="a7f219d305"><path d="M 93.136719 144 L 138 144 L 138 196.847656 L 93.136719 196.847656 Z M 93.136719 144 " clip-rule="nonzero"/></clipPath><clipPath id="ac62f45097"><path d="M 90 131.597656 L 118 131.597656 L 118 191 L 90 191 Z M 90 131.597656 " clip-rule="nonzero"/></clipPath></defs><rect x="-37.5" width="450" fill="#ffffff" y="-37.499999" height="449.999989" fill-opacity="1"/><rect x="-37.5" width="450" fill="#ffffff" y="-37.499999" height="449.999989" fill-opacity="1"/><rect x="-37.5" width="450" fill="#ffffff" y="-37.499999" height="449.999989" fill-opacity="1"/><g fill="#8790a2" fill-opacity="1"><g transform="translate(166.082982, 185.511535)"><g><path d="M 1.953125 -0.984375 L 4.75 -0.984375 L 4.75 0 L 0.859375 0 L 0.859375 -6.484375 L 1.953125 -6.484375 Z M 1.953125 -0.984375 "/></g></g></g><g fill="#8790a2" fill-opacity="1"><g transform="translate(176.78255, 185.511535)"><g><path d="M 5.046875 -1.46875 L 1.765625 -1.46875 L 1.15625 0 L 0.015625 0 L 2.875 -6.484375 L 4 -6.484375 L 6.828125 0 L 5.65625 0 Z M 4.625 -2.4375 L 3.40625 -5.3125 L 2.171875 -2.4375 Z M 4.625 -2.4375 "/></g></g></g><g fill="#8790a2" fill-opacity="1"><g transform="translate(189.373093, 185.511535)"><g><path d="M 6.484375 0 L 5.40625 0 L 1.953125 -4.65625 L 1.953125 0 L 0.859375 0 L 0.859375 -6.484375 L 1.921875 -6.484375 L 5.40625 -1.828125 L 5.40625 -6.484375 L 6.484375 -6.484375 Z M 6.484375 0 "/></g></g></g><g fill="#8790a2" fill-opacity="1"><g transform="translate(202.4642, 185.511535)"><g><path d="M 5.296875 -3.1875 L 6.25 -3.1875 L 6.25 -0.796875 C 5.914062 -0.546875 5.519531 -0.34375 5.0625 -0.1875 C 4.601562 -0.03125 4.15625 0.046875 3.71875 0.046875 C 2.757812 0.046875 1.953125 -0.269531 1.296875 -0.90625 C 0.640625 -1.539062 0.3125 -2.320312 0.3125 -3.25 C 0.3125 -4.175781 0.644531 -4.953125 1.3125 -5.578125 C 1.976562 -6.203125 2.804688 -6.515625 3.796875 -6.515625 C 4.242188 -6.515625 4.6875 -6.429688 5.125 -6.265625 C 5.570312 -6.097656 5.957031 -5.878906 6.28125 -5.609375 L 5.65625 -4.796875 C 5.125 -5.296875 4.503906 -5.546875 3.796875 -5.546875 C 3.128906 -5.546875 2.566406 -5.320312 2.109375 -4.875 C 1.648438 -4.425781 1.421875 -3.882812 1.421875 -3.25 C 1.421875 -2.59375 1.648438 -2.039062 2.109375 -1.59375 C 2.578125 -1.15625 3.140625 -0.9375 3.796875 -0.9375 C 4.296875 -0.9375 4.796875 -1.082031 5.296875 -1.375 Z M 5.296875 -3.1875 "/></g></g></g><g fill="#8790a2" fill-opacity="1"><g transform="translate(215.15671, 185.511535)"><g><path d="M 6.359375 -6.484375 L 6.359375 -2.6875 C 6.359375 -1.84375 6.109375 -1.175781 5.609375 -0.6875 C 5.109375 -0.195312 4.421875 0.046875 3.546875 0.046875 C 2.671875 0.046875 1.976562 -0.195312 1.46875 -0.6875 C 0.96875 -1.175781 0.71875 -1.84375 0.71875 -2.6875 L 0.71875 -6.484375 L 1.8125 -6.484375 L 1.8125 -2.6875 C 1.8125 -2.144531 1.96875 -1.71875 2.28125 -1.40625 C 2.59375 -1.09375 3.019531 -0.9375 3.5625 -0.9375 C 4.09375 -0.9375 4.507812 -1.085938 4.8125 -1.390625 C 5.113281 -1.703125 5.265625 -2.132812 5.265625 -2.6875 L 5.265625 -6.484375 Z M 6.359375 -6.484375 "/></g></g></g><g fill="#8790a2" fill-opacity="1"><g transform="translate(227.988265, 185.511535)"><g><path d="M 5.046875 -1.46875 L 1.765625 -1.46875 L 1.15625 0 L 0.015625 0 L 2.875 -6.484375 L 4 -6.484375 L 6.828125 0 L 5.65625 0 Z M 4.625 -2.4375 L 3.40625 -5.3125 L 2.171875 -2.4375 Z M 4.625 -2.4375 "/></g></g></g><g fill="#8790a2" fill-opacity="1"><g transform="translate(240.578808, 185.511535)"><g><path d="M 5.296875 -3.1875 L 6.25 -3.1875 L 6.25 -0.796875 C 5.914062 -0.546875 5.519531 -0.34375 5.0625 -0.1875 C 4.601562 -0.03125 4.15625 0.046875 3.71875 0.046875 C 2.757812 0.046875 1.953125 -0.269531 1.296875 -0.90625 C 0.640625 -1.539062 0.3125 -2.320312 0.3125 -3.25 C 0.3125 -4.175781 0.644531 -4.953125 1.3125 -5.578125 C 1.976562 -6.203125 2.804688 -6.515625 3.796875 -6.515625 C 4.242188 -6.515625 4.6875 -6.429688 5.125 -6.265625 C 5.570312 -6.097656 5.957031 -5.878906 6.28125 -5.609375 L 5.65625 -4.796875 C 5.125 -5.296875 4.503906 -5.546875 3.796875 -5.546875 C 3.128906 -5.546875 2.566406 -5.320312 2.109375 -4.875 C 1.648438 -4.425781 1.421875 -3.882812 1.421875 -3.25 C 1.421875 -2.59375 1.648438 -2.039062 2.109375 -1.59375 C 2.578125 -1.15625 3.140625 -0.9375 3.796875 -0.9375 C 4.296875 -0.9375 4.796875 -1.082031 5.296875 -1.375 Z M 5.296875 -3.1875 "/></g></g></g><g fill="#8790a2" fill-opacity="1"><g transform="translate(253.271318, 185.511535)"><g><path d="M 5.484375 -5.5 L 1.953125 -5.5 L 1.953125 -3.75 L 5.109375 -3.75 L 5.109375 -2.765625 L 1.953125 -2.765625 L 1.953125 -0.984375 L 5.59375 -0.984375 L 5.59375 0 L 0.859375 0 L 0.859375 -6.484375 L 5.484375 -6.484375 Z M 5.484375 -5.5 "/></g></g></g><g fill="#8790a2" fill-opacity="1"><g transform="translate(265.101767, 185.511535)"><g/></g></g><g fill="#8790a2" fill-opacity="1"><g transform="translate(273.242933, 185.511535)"><g><path d="M 3.71875 -6.515625 C 4.175781 -6.515625 4.625 -6.425781 5.0625 -6.25 C 5.5 -6.070312 5.875 -5.828125 6.1875 -5.515625 L 5.546875 -4.71875 C 5.316406 -4.96875 5.039062 -5.164062 4.71875 -5.3125 C 4.394531 -5.46875 4.070312 -5.546875 3.75 -5.546875 C 3.09375 -5.546875 2.539062 -5.320312 2.09375 -4.875 C 1.644531 -4.4375 1.421875 -3.898438 1.421875 -3.265625 C 1.421875 -2.617188 1.644531 -2.070312 2.09375 -1.625 C 2.539062 -1.1875 3.09375 -0.96875 3.75 -0.96875 C 4.414062 -0.96875 5.015625 -1.222656 5.546875 -1.734375 L 6.203125 -1.015625 C 5.867188 -0.691406 5.476562 -0.429688 5.03125 -0.234375 C 4.582031 -0.046875 4.132812 0.046875 3.6875 0.046875 C 2.738281 0.046875 1.9375 -0.269531 1.28125 -0.90625 C 0.632812 -1.539062 0.3125 -2.320312 0.3125 -3.25 C 0.3125 -4.175781 0.640625 -4.953125 1.296875 -5.578125 C 1.953125 -6.203125 2.757812 -6.515625 3.71875 -6.515625 Z M 3.71875 -6.515625 "/></g></g></g><g fill="#8790a2" fill-opacity="1"><g transform="translate(285.453435, 185.511535)"><g><path d="M 5.046875 -1.46875 L 1.765625 -1.46875 L 1.15625 0 L 0.015625 0 L 2.875 -6.484375 L 4 -6.484375 L 6.828125 0 L 5.65625 0 Z M 4.625 -2.4375 L 3.40625 -5.3125 L 2.171875 -2.4375 Z M 4.625 -2.4375 "/></g></g></g><g fill="#8790a2" fill-opacity="1"><g transform="translate(298.043972, 185.511535)"><g><path d="M 7.703125 0 L 6.703125 0 L 6.6875 -4.84375 L 4.640625 -0.671875 L 3.921875 -0.671875 L 1.875 -4.84375 L 1.875 0 L 0.859375 0 L 0.859375 -6.484375 L 2.15625 -6.484375 L 4.296875 -2.171875 L 6.421875 -6.484375 L 7.703125 -6.484375 Z M 7.703125 0 "/></g></g></g><g fill="#8790a2" fill-opacity="1"><g transform="translate(312.367923, 185.511535)"><g><path d="M 0.859375 -6.484375 L 3.4375 -6.484375 C 4.25 -6.484375 4.878906 -6.289062 5.328125 -5.90625 C 5.773438 -5.519531 6 -4.972656 6 -4.265625 C 6 -3.535156 5.773438 -2.96875 5.328125 -2.5625 C 4.878906 -2.15625 4.25 -1.953125 3.4375 -1.953125 L 1.953125 -1.953125 L 1.953125 0 L 0.859375 0 Z M 1.953125 -5.5 L 1.953125 -2.9375 L 3.390625 -2.9375 C 4.429688 -2.9375 4.953125 -3.375 4.953125 -4.25 C 4.953125 -5.082031 4.429688 -5.5 3.390625 -5.5 Z M 1.953125 -5.5 "/></g></g></g><g fill="#7f1d1d" fill-opacity="1"><g transform="translate(163.336487, 167.756283)"><g><path d="M 4.390625 0.25 C 3.035156 0.25 2.359375 -0.445312 2.359375 -1.84375 L 2.359375 -19.53125 C 2.359375 -20.925781 3.054688 -21.625 4.453125 -21.625 L 15.15625 -21.625 C 16.21875 -21.625 16.75 -21.113281 16.75 -20.09375 C 16.75 -19.03125 16.21875 -18.5 15.15625 -18.5 L 6.28125 -18.5 L 6.28125 -12.390625 L 14.5 -12.390625 C 15.570312 -12.390625 16.109375 -11.878906 16.109375 -10.859375 C 16.109375 -9.796875 15.570312 -9.265625 14.5 -9.265625 L 6.28125 -9.265625 L 6.28125 -1.84375 C 6.28125 -0.445312 5.648438 0.25 4.390625 0.25 Z M 4.390625 0.25 "/></g></g></g><g fill="#7f1d1d" fill-opacity="1"><g transform="translate(184.062102, 167.756283)"><g><path d="M 12.046875 0.3125 C 9.960938 0.3125 8.140625 -0.144531 6.578125 -1.0625 C 5.015625 -1.988281 3.800781 -3.285156 2.9375 -4.953125 C 2.082031 -6.617188 1.65625 -8.578125 1.65625 -10.828125 C 1.65625 -13.097656 2.082031 -15.0625 2.9375 -16.71875 C 3.800781 -18.375 5.007812 -19.65625 6.5625 -20.5625 C 8.113281 -21.476562 9.941406 -21.9375 12.046875 -21.9375 C 14.160156 -21.9375 15.992188 -21.476562 17.546875 -20.5625 C 19.097656 -19.65625 20.300781 -18.375 21.15625 -16.71875 C 22.019531 -15.0625 22.453125 -13.109375 22.453125 -10.859375 C 22.453125 -8.585938 22.019531 -6.617188 21.15625 -4.953125 C 20.300781 -3.285156 19.097656 -1.988281 17.546875 -1.0625 C 15.992188 -0.144531 14.160156 0.3125 12.046875 0.3125 Z M 12.046875 -3.0625 C 14.035156 -3.0625 15.582031 -3.742188 16.6875 -5.109375 C 17.789062 -6.484375 18.34375 -8.390625 18.34375 -10.828125 C 18.34375 -13.273438 17.796875 -15.175781 16.703125 -16.53125 C 15.609375 -17.882812 14.054688 -18.5625 12.046875 -18.5625 C 10.066406 -18.5625 8.523438 -17.882812 7.421875 -16.53125 C 6.316406 -15.175781 5.765625 -13.273438 5.765625 -10.828125 C 5.765625 -8.390625 6.316406 -6.484375 7.421875 -5.109375 C 8.523438 -3.742188 10.066406 -3.0625 12.046875 -3.0625 Z M 12.046875 -3.0625 "/></g></g></g><g fill="#7f1d1d" fill-opacity="1"><g transform="translate(211.624051, 167.756283)"><g><path d="M 4.328125 0.25 C 3.015625 0.25 2.359375 -0.425781 2.359375 -1.78125 L 2.359375 -19.625 C 2.359375 -20.957031 3.023438 -21.625 4.359375 -21.625 L 11.75 -21.625 C 14.125 -21.625 15.953125 -21.054688 17.234375 -19.921875 C 18.523438 -18.785156 19.171875 -17.195312 19.171875 -15.15625 C 19.171875 -13.539062 18.75 -12.203125 17.90625 -11.140625 C 17.070312 -10.085938 15.867188 -9.378906 14.296875 -9.015625 C 15.335938 -8.691406 16.195312 -7.90625 16.875 -6.65625 L 19.171875 -2.390625 C 19.515625 -1.734375 19.578125 -1.128906 19.359375 -0.578125 C 19.148438 -0.0234375 18.628906 0.25 17.796875 0.25 C 17.242188 0.25 16.789062 0.132812 16.4375 -0.09375 C 16.09375 -0.332031 15.785156 -0.703125 15.515625 -1.203125 L 12.421875 -6.90625 C 12.054688 -7.59375 11.617188 -8.054688 11.109375 -8.296875 C 10.609375 -8.535156 9.972656 -8.65625 9.203125 -8.65625 L 6.28125 -8.65625 L 6.28125 -1.78125 C 6.28125 -0.425781 5.628906 0.25 4.328125 0.25 Z M 6.28125 -11.5625 L 11.078125 -11.5625 C 13.929688 -11.5625 15.359375 -12.726562 15.359375 -15.0625 C 15.359375 -17.375 13.929688 -18.53125 11.078125 -18.53125 L 6.28125 -18.53125 Z M 6.28125 -11.5625 "/></g></g></g><g fill="#7f1d1d" fill-opacity="1"><g transform="translate(236.151039, 167.756283)"><g><path d="M 4.453125 0 C 3.054688 0 2.359375 -0.691406 2.359375 -2.078125 L 2.359375 -19.53125 C 2.359375 -20.925781 3.054688 -21.625 4.453125 -21.625 L 15.390625 -21.625 C 16.460938 -21.625 17 -21.113281 17 -20.09375 C 17 -19.03125 16.460938 -18.5 15.390625 -18.5 L 6.140625 -18.5 L 6.140625 -12.546875 L 14.71875 -12.546875 C 15.78125 -12.546875 16.3125 -12.023438 16.3125 -10.984375 C 16.3125 -9.941406 15.78125 -9.421875 14.71875 -9.421875 L 6.140625 -9.421875 L 6.140625 -3.125 L 15.390625 -3.125 C 16.460938 -3.125 17 -2.601562 17 -1.5625 C 17 -0.519531 16.460938 0 15.390625 0 Z M 4.453125 0 "/></g></g></g><g fill="#7f1d1d" fill-opacity="1"><g transform="translate(257.949618, 167.756283)"><g><path d="M 4.328125 0.25 C 3.015625 0.25 2.359375 -0.425781 2.359375 -1.78125 L 2.359375 -19.84375 C 2.359375 -21.195312 3.015625 -21.875 4.328125 -21.875 C 5.628906 -21.875 6.28125 -21.195312 6.28125 -19.84375 L 6.28125 -1.78125 C 6.28125 -0.425781 5.628906 0.25 4.328125 0.25 Z M 4.328125 0.25 "/></g></g></g><g fill="#7f1d1d" fill-opacity="1"><g transform="translate(270.091489, 167.756283)"><g><path d="M 12.765625 0.3125 C 10.367188 0.3125 8.347656 -0.132812 6.703125 -1.03125 C 5.054688 -1.9375 3.800781 -3.21875 2.9375 -4.875 C 2.082031 -6.53125 1.65625 -8.492188 1.65625 -10.765625 C 1.65625 -13.054688 2.09375 -15.035156 2.96875 -16.703125 C 3.851562 -18.367188 5.125 -19.65625 6.78125 -20.5625 C 8.4375 -21.476562 10.421875 -21.9375 12.734375 -21.9375 C 13.878906 -21.9375 15.023438 -21.796875 16.171875 -21.515625 C 17.328125 -21.242188 18.421875 -20.78125 19.453125 -20.125 C 19.898438 -19.851562 20.15625 -19.5 20.21875 -19.0625 C 20.289062 -18.625 20.222656 -18.207031 20.015625 -17.8125 C 19.816406 -17.425781 19.515625 -17.15625 19.109375 -17 C 18.703125 -16.851562 18.253906 -16.921875 17.765625 -17.203125 C 16.984375 -17.648438 16.191406 -17.976562 15.390625 -18.1875 C 14.597656 -18.394531 13.710938 -18.5 12.734375 -18.5 C 10.441406 -18.5 8.707031 -17.832031 7.53125 -16.5 C 6.351562 -15.164062 5.765625 -13.253906 5.765625 -10.765625 C 5.765625 -8.253906 6.367188 -6.34375 7.578125 -5.03125 C 8.785156 -3.71875 10.570312 -3.0625 12.9375 -3.0625 C 13.613281 -3.0625 14.304688 -3.117188 15.015625 -3.234375 C 15.722656 -3.347656 16.421875 -3.515625 17.109375 -3.734375 L 17.109375 -8.765625 L 13.734375 -8.765625 C 12.671875 -8.765625 12.140625 -9.257812 12.140625 -10.25 C 12.140625 -11.207031 12.671875 -11.6875 13.734375 -11.6875 L 18.796875 -11.6875 C 19.859375 -11.6875 20.390625 -11.15625 20.390625 -10.09375 L 20.390625 -2.640625 C 20.390625 -1.703125 20.023438 -1.097656 19.296875 -0.828125 C 18.390625 -0.503906 17.351562 -0.234375 16.1875 -0.015625 C 15.03125 0.203125 13.890625 0.3125 12.765625 0.3125 Z M 12.765625 0.3125 "/></g></g></g><g fill="#7f1d1d" fill-opacity="1"><g transform="translate(296.151287, 167.756283)"><g><path d="M 4.203125 0.25 C 2.972656 0.25 2.359375 -0.382812 2.359375 -1.65625 L 2.359375 -19.90625 C 2.359375 -20.539062 2.515625 -21.023438 2.828125 -21.359375 C 3.148438 -21.703125 3.566406 -21.875 4.078125 -21.875 C 4.546875 -21.875 4.894531 -21.785156 5.125 -21.609375 C 5.363281 -21.429688 5.648438 -21.140625 5.984375 -20.734375 L 16.9375 -6.53125 L 16.9375 -20 C 16.9375 -21.25 17.546875 -21.875 18.765625 -21.875 C 19.972656 -21.875 20.578125 -21.25 20.578125 -20 L 20.578125 -1.59375 C 20.578125 -1.019531 20.429688 -0.566406 20.140625 -0.234375 C 19.859375 0.0859375 19.472656 0.25 18.984375 0.25 C 18.515625 0.25 18.140625 0.15625 17.859375 -0.03125 C 17.585938 -0.21875 17.289062 -0.515625 16.96875 -0.921875 L 6.015625 -15.15625 L 6.015625 -1.65625 C 6.015625 -0.382812 5.410156 0.25 4.203125 0.25 Z M 4.203125 0.25 "/></g></g></g><g fill="#7f1d1d" fill-opacity="1"><g transform="translate(322.570852, 167.756283)"><g/></g></g><g clip-path="url(#77bf605ee1)"><path fill="#539ddb" d="M 114.390625 136.542969 L 69.132812 136.542969 C 64.992188 136.542969 61.597656 139.941406 61.597656 144.089844 L 61.597656 170.488281 C 61.597656 174.636719 64.992188 178.027344 69.132812 178.027344 L 72.90625 178.027344 L 72.90625 189.347656 L 87.992188 178.027344 L 95.539062 178.027344 " fill-opacity="1" fill-rule="nonzero"/><path fill="#539ddb" d="M 114.390625 136.542969 L 69.132812 136.542969 C 64.992188 136.542969 61.597656 139.941406 61.597656 144.089844 L 61.597656 170.488281 C 61.597656 174.636719 64.992188 178.027344 69.132812 178.027344 L 72.90625 178.027344 L 72.90625 189.347656 L 87.992188 178.027344 L 95.539062 178.027344 " fill-opacity="1" fill-rule="nonzero"/></g><path fill="#3e66ba" d="M 95.917969 178.027344 L 96.671875 178.027344 L 111.378906 144.089844 L 114.390625 136.542969 L 105.71875 136.542969 L 91.011719 168.601562 C 90.632812 169.734375 89.503906 170.488281 88.371094 170.488281 C 87.238281 170.863281 86.484375 171.242188 85.730469 171.621094 L 72.90625 181.800781 L 72.90625 189.347656 L 87.992188 178.027344 L 95.917969 178.027344 " fill-opacity="1" fill-rule="nonzero"/><g clip-path="url(#98ee242a7a)"><path fill="#eaeff9" d="M 111.378906 144.089844 L 140.785156 144.089844 C 144.9375 144.089844 148.332031 147.488281 148.332031 151.628906 L 148.332031 178.027344 C 148.332031 182.175781 144.9375 185.574219 140.785156 185.574219 L 137.019531 185.574219 L 137.019531 196.882812 L 121.9375 185.574219 L 95.539062 185.574219 C 94.785156 185.574219 94.03125 185.574219 93.652344 185.195312 " fill-opacity="1" fill-rule="nonzero"/></g><g clip-path="url(#a7f219d305)"><path fill="#cce2ef" d="M 119.296875 178.027344 L 109.863281 178.027344 C 107.230469 178.027344 105.34375 175.394531 106.472656 172.75 L 118.917969 144.089844 L 111.378906 144.089844 L 96.671875 178.027344 L 93.652344 185.195312 C 94.40625 185.195312 95.160156 185.574219 95.539062 185.574219 L 121.9375 185.574219 L 137.019531 196.882812 L 137.019531 189.347656 L 123.824219 179.535156 C 122.691406 178.402344 121.179688 178.027344 119.296875 178.027344 " fill-opacity="1" fill-rule="nonzero"/></g><g clip-path="url(#ac62f45097)"><path stroke-linecap="round" transform="matrix(0.19713, 0, 0, -0.19713, 61.596029, 196.885417)" fill="none" stroke-linejoin="round" d="M 277.387213 325.20725 L 153.044238 38.237533 " stroke="#1a4363" stroke-width="10" stroke-opacity="1" stroke-miterlimit="10"/></g><path fill="#1a4363" d="M 129.476562 176.140625 C 128.34375 176.140625 127.589844 175.394531 127.589844 174.261719 L 127.589844 159.175781 C 127.589844 158.042969 126.832031 157.289062 125.710938 157.289062 L 118.164062 157.289062 C 117.03125 157.289062 116.277344 158.042969 116.277344 159.175781 L 116.277344 174.261719 C 116.277344 175.394531 115.523438 176.140625 114.390625 176.140625 C 113.265625 176.140625 112.511719 175.394531 112.511719 174.261719 L 112.511719 159.175781 C 112.511719 156.15625 115.144531 153.515625 118.164062 153.515625 L 125.710938 153.515625 C 128.71875 153.515625 131.363281 156.15625 131.363281 159.175781 L 131.363281 174.261719 C 131.363281 175.394531 130.605469 176.140625 129.476562 176.140625 " fill-opacity="1" fill-rule="nonzero"/><path fill="#1a4363" d="M 95.539062 149.742188 L 76.679688 149.742188 C 75.550781 149.742188 74.792969 148.988281 74.792969 147.863281 C 74.792969 146.730469 75.550781 145.976562 76.679688 145.976562 L 95.539062 145.976562 C 96.671875 145.976562 97.417969 146.730469 97.417969 147.863281 C 97.417969 148.988281 96.671875 149.742188 95.539062 149.742188 Z M 127.589844 168.601562 L 116.277344 168.601562 C 115.144531 168.601562 114.390625 167.847656 114.390625 166.714844 C 114.390625 165.582031 115.144531 164.828125 116.277344 164.828125 L 127.589844 164.828125 C 128.71875 164.828125 129.476562 165.582031 129.476562 166.714844 C 129.476562 167.847656 128.71875 168.601562 127.589844 168.601562 " fill-opacity="1" fill-rule="nonzero"/><path fill="#1a4363" d="M 95.160156 172.375 C 94.785156 172.375 94.40625 172.375 94.40625 171.996094 C 85.351562 167.46875 79.324219 158.042969 78.945312 148.242188 C 78.945312 147.109375 79.699219 146.355469 80.832031 146.355469 C 81.964844 146.355469 82.71875 147.109375 82.71875 148.242188 C 83.09375 156.910156 88.371094 164.828125 96.292969 168.976562 C 97.039062 169.355469 97.417969 170.488281 97.039062 171.621094 C 96.292969 171.996094 95.539062 172.375 95.160156 172.375 " fill-opacity="1" fill-rule="nonzero"/><path fill="#1a4363" d="M 86.105469 149.742188 C 84.972656 149.742188 84.21875 148.988281 84.21875 147.863281 L 84.21875 144.089844 C 84.21875 142.957031 84.972656 142.203125 86.105469 142.203125 C 87.238281 142.203125 87.992188 142.957031 87.992188 144.089844 L 87.992188 147.863281 C 87.992188 148.988281 87.238281 149.742188 86.105469 149.742188 Z M 80.453125 169.355469 C 79.699219 169.355469 79.324219 168.976562 78.945312 168.601562 C 78.191406 167.847656 78.566406 166.714844 79.324219 165.960938 C 85.351562 161.816406 89.125 155.402344 89.503906 147.863281 C 89.503906 146.730469 90.257812 145.976562 91.390625 145.976562 C 92.519531 145.976562 93.277344 147.109375 93.277344 147.863281 C 92.898438 156.535156 88.371094 164.449219 81.207031 168.976562 C 81.207031 169.355469 80.832031 169.355469 80.453125 169.355469 " fill-opacity="1" fill-rule="nonzero"/></svg>