<svg xmlns="http://www.w3.org/2000/svg" xmlns:xlink="http://www.w3.org/1999/xlink" width="300" zoomAndPan="magnify" viewBox="0 0 224.87999 37.5" height="50" preserveAspectRatio="xMidYMid meet" version="1.0"><defs><g/><clipPath id="e8686f0989"><path d="M 27.402344 2 L 58 2 L 58 33 L 27.402344 33 Z M 27.402344 2 " clip-rule="nonzero"/></clipPath><clipPath id="55411564ae"><path d="M 45.453125 7 L 76.917969 7 L 76.917969 37.007812 L 45.453125 37.007812 Z M 45.453125 7 " clip-rule="nonzero"/></clipPath><clipPath id="c20d0f3d3c"><path d="M 45.453125 7 L 71 7 L 71 37.007812 L 45.453125 37.007812 Z M 45.453125 7 " clip-rule="nonzero"/></clipPath></defs><g fill="#8790a2" fill-opacity="1"><g transform="translate(86.767422, 30.741626)"><g><path d="M 1.109375 -0.5625 L 2.703125 -0.5625 L 2.703125 0 L 0.484375 0 L 0.484375 -3.6875 L 1.109375 -3.6875 Z M 1.109375 -0.5625 "/></g></g></g><g fill="#8790a2" fill-opacity="1"><g transform="translate(92.838864, 30.741626)"><g><path d="M 2.859375 -0.828125 L 1 -0.828125 L 0.65625 0 L 0 0 L 1.625 -3.6875 L 2.265625 -3.6875 L 3.875 0 L 3.21875 0 Z M 2.625 -1.390625 L 1.9375 -3.015625 L 1.234375 -1.390625 Z M 2.625 -1.390625 "/></g></g></g><g fill="#8790a2" fill-opacity="1"><g transform="translate(99.983335, 30.741626)"><g><path d="M 3.6875 0 L 3.0625 0 L 1.109375 -2.640625 L 1.109375 0 L 0.484375 0 L 0.484375 -3.6875 L 1.09375 -3.6875 L 3.0625 -1.03125 L 3.0625 -3.6875 L 3.6875 -3.6875 Z M 3.6875 0 "/></g></g></g><g fill="#8790a2" fill-opacity="1"><g transform="translate(107.411849, 30.741626)"><g><path d="M 3 -1.8125 L 3.546875 -1.8125 L 3.546875 -0.453125 C 3.359375 -0.304688 3.132812 -0.1875 2.875 -0.09375 C 2.613281 -0.0078125 2.359375 0.03125 2.109375 0.03125 C 1.566406 0.03125 1.109375 -0.144531 0.734375 -0.5 C 0.359375 -0.863281 0.171875 -1.3125 0.171875 -1.84375 C 0.171875 -2.375 0.359375 -2.816406 0.734375 -3.171875 C 1.117188 -3.523438 1.59375 -3.703125 2.15625 -3.703125 C 2.414062 -3.703125 2.671875 -3.65625 2.921875 -3.5625 C 3.171875 -3.46875 3.382812 -3.34375 3.5625 -3.1875 L 3.21875 -2.734375 C 2.914062 -3.015625 2.5625 -3.15625 2.15625 -3.15625 C 1.78125 -3.15625 1.460938 -3.023438 1.203125 -2.765625 C 0.941406 -2.515625 0.8125 -2.207031 0.8125 -1.84375 C 0.8125 -1.476562 0.941406 -1.164062 1.203125 -0.90625 C 1.460938 -0.65625 1.78125 -0.53125 2.15625 -0.53125 C 2.4375 -0.53125 2.71875 -0.613281 3 -0.78125 Z M 3 -1.8125 "/></g></g></g><g fill="#8790a2" fill-opacity="1"><g transform="translate(114.614181, 30.741626)"><g><path d="M 3.625 -3.6875 L 3.625 -1.53125 C 3.625 -1.050781 3.476562 -0.671875 3.1875 -0.390625 C 2.90625 -0.109375 2.515625 0.03125 2.015625 0.03125 C 1.515625 0.03125 1.117188 -0.109375 0.828125 -0.390625 C 0.546875 -0.671875 0.40625 -1.050781 0.40625 -1.53125 L 0.40625 -3.6875 L 1.03125 -3.6875 L 1.03125 -1.53125 C 1.03125 -1.21875 1.117188 -0.972656 1.296875 -0.796875 C 1.472656 -0.617188 1.710938 -0.53125 2.015625 -0.53125 C 2.316406 -0.53125 2.554688 -0.617188 2.734375 -0.796875 C 2.910156 -0.972656 3 -1.21875 3 -1.53125 L 3 -3.6875 Z M 3.625 -3.6875 "/></g></g></g><g fill="#8790a2" fill-opacity="1"><g transform="translate(121.895414, 30.741626)"><g><path d="M 2.859375 -0.828125 L 1 -0.828125 L 0.65625 0 L 0 0 L 1.625 -3.6875 L 2.265625 -3.6875 L 3.875 0 L 3.21875 0 Z M 2.625 -1.390625 L 1.9375 -3.015625 L 1.234375 -1.390625 Z M 2.625 -1.390625 "/></g></g></g><g fill="#8790a2" fill-opacity="1"><g transform="translate(129.039884, 30.741626)"><g><path d="M 3 -1.8125 L 3.546875 -1.8125 L 3.546875 -0.453125 C 3.359375 -0.304688 3.132812 -0.1875 2.875 -0.09375 C 2.613281 -0.0078125 2.359375 0.03125 2.109375 0.03125 C 1.566406 0.03125 1.109375 -0.144531 0.734375 -0.5 C 0.359375 -0.863281 0.171875 -1.3125 0.171875 -1.84375 C 0.171875 -2.375 0.359375 -2.816406 0.734375 -3.171875 C 1.117188 -3.523438 1.59375 -3.703125 2.15625 -3.703125 C 2.414062 -3.703125 2.671875 -3.65625 2.921875 -3.5625 C 3.171875 -3.46875 3.382812 -3.34375 3.5625 -3.1875 L 3.21875 -2.734375 C 2.914062 -3.015625 2.5625 -3.15625 2.15625 -3.15625 C 1.78125 -3.15625 1.460938 -3.023438 1.203125 -2.765625 C 0.941406 -2.515625 0.8125 -2.207031 0.8125 -1.84375 C 0.8125 -1.476562 0.941406 -1.164062 1.203125 -0.90625 C 1.460938 -0.65625 1.78125 -0.53125 2.15625 -0.53125 C 2.4375 -0.53125 2.71875 -0.613281 3 -0.78125 Z M 3 -1.8125 "/></g></g></g><g fill="#8790a2" fill-opacity="1"><g transform="translate(136.242216, 30.741626)"><g><path d="M 3.125 -3.125 L 1.109375 -3.125 L 1.109375 -2.125 L 2.90625 -2.125 L 2.90625 -1.578125 L 1.109375 -1.578125 L 1.109375 -0.5625 L 3.1875 -0.5625 L 3.1875 0 L 0.484375 0 L 0.484375 -3.6875 L 3.125 -3.6875 Z M 3.125 -3.125 "/></g></g></g><g fill="#8790a2" fill-opacity="1"><g transform="translate(142.955373, 30.741626)"><g/></g></g><g fill="#8790a2" fill-opacity="1"><g transform="translate(147.575057, 30.741626)"><g><path d="M 2.109375 -3.703125 C 2.367188 -3.703125 2.625 -3.648438 2.875 -3.546875 C 3.125 -3.453125 3.335938 -3.316406 3.515625 -3.140625 L 3.15625 -2.6875 C 3.019531 -2.820312 2.859375 -2.929688 2.671875 -3.015625 C 2.492188 -3.109375 2.3125 -3.15625 2.125 -3.15625 C 1.757812 -3.15625 1.445312 -3.023438 1.1875 -2.765625 C 0.9375 -2.515625 0.8125 -2.210938 0.8125 -1.859375 C 0.8125 -1.492188 0.9375 -1.179688 1.1875 -0.921875 C 1.445312 -0.671875 1.757812 -0.546875 2.125 -0.546875 C 2.507812 -0.546875 2.851562 -0.691406 3.15625 -0.984375 L 3.515625 -0.578125 C 3.328125 -0.390625 3.109375 -0.238281 2.859375 -0.125 C 2.609375 -0.0195312 2.351562 0.03125 2.09375 0.03125 C 1.550781 0.03125 1.09375 -0.144531 0.71875 -0.5 C 0.351562 -0.863281 0.171875 -1.3125 0.171875 -1.84375 C 0.171875 -2.375 0.359375 -2.816406 0.734375 -3.171875 C 1.109375 -3.523438 1.566406 -3.703125 2.109375 -3.703125 Z M 2.109375 -3.703125 "/></g></g></g><g fill="#8790a2" fill-opacity="1"><g transform="translate(154.503874, 30.741626)"><g><path d="M 2.859375 -0.828125 L 1 -0.828125 L 0.65625 0 L 0 0 L 1.625 -3.6875 L 2.265625 -3.6875 L 3.875 0 L 3.21875 0 Z M 2.625 -1.390625 L 1.9375 -3.015625 L 1.234375 -1.390625 Z M 2.625 -1.390625 "/></g></g></g><g fill="#8790a2" fill-opacity="1"><g transform="translate(161.648342, 30.741626)"><g><path d="M 4.375 0 L 3.8125 0 L 3.796875 -2.75 L 2.640625 -0.390625 L 2.234375 -0.390625 L 1.0625 -2.75 L 1.0625 0 L 0.484375 0 L 0.484375 -3.6875 L 1.21875 -3.6875 L 2.4375 -1.234375 L 3.65625 -3.6875 L 4.375 -3.6875 Z M 4.375 0 "/></g></g></g><g fill="#8790a2" fill-opacity="1"><g transform="translate(169.77643, 30.741626)"><g><path d="M 0.484375 -3.6875 L 1.953125 -3.6875 C 2.421875 -3.6875 2.78125 -3.578125 3.03125 -3.359375 C 3.28125 -3.140625 3.40625 -2.828125 3.40625 -2.421875 C 3.40625 -2.003906 3.28125 -1.679688 3.03125 -1.453125 C 2.78125 -1.222656 2.421875 -1.109375 1.953125 -1.109375 L 1.109375 -1.109375 L 1.109375 0 L 0.484375 0 Z M 1.109375 -3.125 L 1.109375 -1.671875 L 1.921875 -1.671875 C 2.515625 -1.671875 2.8125 -1.914062 2.8125 -2.40625 C 2.8125 -2.882812 2.515625 -3.125 1.921875 -3.125 Z M 1.109375 -3.125 "/></g></g></g><g fill="#ef2853" fill-opacity="1"><g transform="translate(85.212025, 19.371531)"><g><path d="M 2.484375 0.140625 C 1.722656 0.140625 1.34375 -0.253906 1.34375 -1.046875 L 1.34375 -11.09375 C 1.34375 -11.875 1.738281 -12.265625 2.53125 -12.265625 L 8.59375 -12.265625 C 9.195312 -12.265625 9.5 -11.976562 9.5 -11.40625 C 9.5 -10.800781 9.195312 -10.5 8.59375 -10.5 L 3.5625 -10.5 L 3.5625 -7.03125 L 8.234375 -7.03125 C 8.835938 -7.03125 9.140625 -6.738281 9.140625 -6.15625 C 9.140625 -5.550781 8.835938 -5.25 8.234375 -5.25 L 3.5625 -5.25 L 3.5625 -1.046875 C 3.5625 -0.253906 3.203125 0.140625 2.484375 0.140625 Z M 2.484375 0.140625 "/></g></g></g><g fill="#ef2853" fill-opacity="1"><g transform="translate(96.971195, 19.371531)"><g><path d="M 6.84375 0.171875 C 5.65625 0.171875 4.617188 -0.0859375 3.734375 -0.609375 C 2.847656 -1.128906 2.160156 -1.863281 1.671875 -2.8125 C 1.179688 -3.757812 0.9375 -4.867188 0.9375 -6.140625 C 0.9375 -7.429688 1.179688 -8.546875 1.671875 -9.484375 C 2.160156 -10.421875 2.84375 -11.148438 3.71875 -11.671875 C 4.601562 -12.191406 5.644531 -12.453125 6.84375 -12.453125 C 8.039062 -12.453125 9.078125 -12.191406 9.953125 -11.671875 C 10.835938 -11.148438 11.519531 -10.421875 12 -9.484375 C 12.488281 -8.546875 12.734375 -7.4375 12.734375 -6.15625 C 12.734375 -4.875 12.488281 -3.757812 12 -2.8125 C 11.519531 -1.863281 10.835938 -1.128906 9.953125 -0.609375 C 9.078125 -0.0859375 8.039062 0.171875 6.84375 0.171875 Z M 6.84375 -1.734375 C 7.96875 -1.734375 8.84375 -2.125 9.46875 -2.90625 C 10.09375 -3.6875 10.40625 -4.765625 10.40625 -6.140625 C 10.40625 -7.535156 10.09375 -8.613281 9.46875 -9.375 C 8.851562 -10.144531 7.976562 -10.53125 6.84375 -10.53125 C 5.71875 -10.53125 4.835938 -10.144531 4.203125 -9.375 C 3.578125 -8.613281 3.265625 -7.535156 3.265625 -6.140625 C 3.265625 -4.765625 3.578125 -3.6875 4.203125 -2.90625 C 4.835938 -2.125 5.71875 -1.734375 6.84375 -1.734375 Z M 6.84375 -1.734375 "/></g></g></g><g fill="#ef2853" fill-opacity="1"><g transform="translate(112.609021, 19.371531)"><g><path d="M 2.453125 0.140625 C 1.710938 0.140625 1.34375 -0.242188 1.34375 -1.015625 L 1.34375 -11.140625 C 1.34375 -11.890625 1.71875 -12.265625 2.46875 -12.265625 L 6.671875 -12.265625 C 8.015625 -12.265625 9.050781 -11.941406 9.78125 -11.296875 C 10.507812 -10.660156 10.875 -9.757812 10.875 -8.59375 C 10.875 -7.675781 10.632812 -6.921875 10.15625 -6.328125 C 9.6875 -5.734375 9.003906 -5.332031 8.109375 -5.125 C 8.703125 -4.9375 9.191406 -4.488281 9.578125 -3.78125 L 10.875 -1.359375 C 11.070312 -0.984375 11.109375 -0.640625 10.984375 -0.328125 C 10.867188 -0.015625 10.570312 0.140625 10.09375 0.140625 C 9.78125 0.140625 9.523438 0.0703125 9.328125 -0.0625 C 9.128906 -0.195312 8.957031 -0.398438 8.8125 -0.671875 L 7.046875 -3.921875 C 6.835938 -4.316406 6.59375 -4.578125 6.3125 -4.703125 C 6.03125 -4.835938 5.664062 -4.90625 5.21875 -4.90625 L 3.5625 -4.90625 L 3.5625 -1.015625 C 3.5625 -0.242188 3.191406 0.140625 2.453125 0.140625 Z M 3.5625 -6.5625 L 6.28125 -6.5625 C 7.90625 -6.5625 8.71875 -7.222656 8.71875 -8.546875 C 8.71875 -9.859375 7.90625 -10.515625 6.28125 -10.515625 L 3.5625 -10.515625 Z M 3.5625 -6.5625 "/></g></g></g><g fill="#ef2853" fill-opacity="1"><g transform="translate(126.524924, 19.371531)"><g><path d="M 2.53125 0 C 1.738281 0 1.34375 -0.394531 1.34375 -1.1875 L 1.34375 -11.09375 C 1.34375 -11.875 1.738281 -12.265625 2.53125 -12.265625 L 8.734375 -12.265625 C 9.335938 -12.265625 9.640625 -11.976562 9.640625 -11.40625 C 9.640625 -10.800781 9.335938 -10.5 8.734375 -10.5 L 3.484375 -10.5 L 3.484375 -7.125 L 8.359375 -7.125 C 8.960938 -7.125 9.265625 -6.828125 9.265625 -6.234375 C 9.265625 -5.640625 8.960938 -5.34375 8.359375 -5.34375 L 3.484375 -5.34375 L 3.484375 -1.78125 L 8.734375 -1.78125 C 9.335938 -1.78125 9.640625 -1.484375 9.640625 -0.890625 C 9.640625 -0.296875 9.335938 0 8.734375 0 Z M 2.53125 0 "/></g></g></g><g fill="#ef2853" fill-opacity="1"><g transform="translate(138.892849, 19.371531)"><g><path d="M 2.453125 0.140625 C 1.710938 0.140625 1.34375 -0.242188 1.34375 -1.015625 L 1.34375 -11.265625 C 1.34375 -12.023438 1.710938 -12.40625 2.453125 -12.40625 C 3.191406 -12.40625 3.5625 -12.023438 3.5625 -11.265625 L 3.5625 -1.015625 C 3.5625 -0.242188 3.191406 0.140625 2.453125 0.140625 Z M 2.453125 0.140625 "/></g></g></g><g fill="#ef2853" fill-opacity="1"><g transform="translate(145.781953, 19.371531)"><g><path d="M 7.234375 0.171875 C 5.878906 0.171875 4.734375 -0.0820312 3.796875 -0.59375 C 2.867188 -1.101562 2.160156 -1.828125 1.671875 -2.765625 C 1.179688 -3.703125 0.9375 -4.816406 0.9375 -6.109375 C 0.9375 -7.410156 1.1875 -8.53125 1.6875 -9.46875 C 2.1875 -10.414062 2.90625 -11.148438 3.84375 -11.671875 C 4.78125 -12.191406 5.90625 -12.453125 7.21875 -12.453125 C 7.875 -12.453125 8.53125 -12.367188 9.1875 -12.203125 C 9.84375 -12.046875 10.457031 -11.785156 11.03125 -11.421875 C 11.289062 -11.265625 11.441406 -11.0625 11.484375 -10.8125 C 11.523438 -10.5625 11.484375 -10.328125 11.359375 -10.109375 C 11.242188 -9.890625 11.070312 -9.734375 10.84375 -9.640625 C 10.613281 -9.554688 10.359375 -9.597656 10.078125 -9.765625 C 9.640625 -10.015625 9.191406 -10.195312 8.734375 -10.3125 C 8.285156 -10.4375 7.78125 -10.5 7.21875 -10.5 C 5.925781 -10.5 4.941406 -10.117188 4.265625 -9.359375 C 3.597656 -8.609375 3.265625 -7.523438 3.265625 -6.109375 C 3.265625 -4.679688 3.609375 -3.59375 4.296875 -2.84375 C 4.984375 -2.101562 6 -1.734375 7.34375 -1.734375 C 7.726562 -1.734375 8.117188 -1.765625 8.515625 -1.828125 C 8.921875 -1.898438 9.320312 -2 9.71875 -2.125 L 9.71875 -4.984375 L 7.796875 -4.984375 C 7.191406 -4.984375 6.890625 -5.257812 6.890625 -5.8125 C 6.890625 -6.351562 7.191406 -6.625 7.796875 -6.625 L 10.671875 -6.625 C 11.273438 -6.625 11.578125 -6.328125 11.578125 -5.734375 L 11.578125 -1.5 C 11.578125 -0.96875 11.367188 -0.625 10.953125 -0.46875 C 10.441406 -0.28125 9.851562 -0.125 9.1875 0 C 8.53125 0.113281 7.878906 0.171875 7.234375 0.171875 Z M 7.234375 0.171875 "/></g></g></g><g fill="#ef2853" fill-opacity="1"><g transform="translate(160.567514, 19.371531)"><g><path d="M 2.390625 0.140625 C 1.691406 0.140625 1.34375 -0.21875 1.34375 -0.9375 L 1.34375 -11.296875 C 1.34375 -11.660156 1.429688 -11.9375 1.609375 -12.125 C 1.785156 -12.3125 2.019531 -12.40625 2.3125 -12.40625 C 2.582031 -12.40625 2.78125 -12.351562 2.90625 -12.25 C 3.039062 -12.15625 3.203125 -11.992188 3.390625 -11.765625 L 9.609375 -3.703125 L 9.609375 -11.34375 C 9.609375 -12.050781 9.957031 -12.40625 10.65625 -12.40625 C 11.332031 -12.40625 11.671875 -12.050781 11.671875 -11.34375 L 11.671875 -0.90625 C 11.671875 -0.582031 11.585938 -0.328125 11.421875 -0.140625 C 11.265625 0.046875 11.050781 0.140625 10.78125 0.140625 C 10.507812 0.140625 10.296875 0.0859375 10.140625 -0.015625 C 9.984375 -0.117188 9.8125 -0.285156 9.625 -0.515625 L 3.40625 -8.59375 L 3.40625 -0.9375 C 3.40625 -0.21875 3.066406 0.140625 2.390625 0.140625 Z M 2.390625 0.140625 "/></g></g></g><g fill="#ef2853" fill-opacity="1"><g transform="translate(175.554332, 19.371531)"><g/></g></g><g clip-path="url(#e8686f0989)"><path fill="#539ddb" d="M 57.570312 2.804688 L 31.769531 2.804688 C 29.410156 2.804688 27.472656 4.730469 27.472656 7.085938 L 27.472656 22.058594 C 27.472656 24.410156 29.410156 26.332031 31.769531 26.332031 L 33.921875 26.332031 L 33.921875 32.753906 L 42.519531 26.332031 L 46.824219 26.332031 " fill-opacity="1" fill-rule="nonzero"/><path fill="#539ddb" d="M 57.570312 2.804688 L 31.769531 2.804688 C 29.410156 2.804688 27.472656 4.730469 27.472656 7.085938 L 27.472656 22.058594 C 27.472656 24.410156 29.410156 26.332031 31.769531 26.332031 L 33.921875 26.332031 L 33.921875 32.753906 L 42.519531 26.332031 L 46.824219 26.332031 " fill-opacity="1" fill-rule="nonzero"/></g><path fill="#3e66ba" d="M 47.039062 26.332031 L 47.46875 26.332031 L 55.851562 7.085938 L 57.570312 2.804688 L 52.625 2.804688 L 44.242188 20.988281 C 44.027344 21.628906 43.382812 22.058594 42.738281 22.058594 C 42.089844 22.269531 41.660156 22.484375 41.230469 22.699219 L 33.921875 28.472656 L 33.921875 32.753906 L 42.519531 26.332031 L 47.039062 26.332031 " fill-opacity="1" fill-rule="nonzero"/><g clip-path="url(#55411564ae)"><path fill="#eaeff9" d="M 55.851562 7.085938 L 72.617188 7.085938 C 74.984375 7.085938 76.917969 9.011719 76.917969 11.363281 L 76.917969 26.332031 C 76.917969 28.6875 74.984375 30.613281 72.617188 30.613281 L 70.472656 30.613281 L 70.472656 37.027344 L 61.871094 30.613281 L 46.824219 30.613281 C 46.394531 30.613281 45.960938 30.613281 45.746094 30.398438 " fill-opacity="1" fill-rule="nonzero"/></g><g clip-path="url(#c20d0f3d3c)"><path fill="#cce2ef" d="M 60.367188 26.332031 L 54.988281 26.332031 C 53.488281 26.332031 52.410156 24.839844 53.058594 23.339844 L 60.152344 7.085938 L 55.851562 7.085938 L 47.46875 26.332031 L 45.746094 30.398438 C 46.179688 30.398438 46.609375 30.613281 46.824219 30.613281 L 61.871094 30.613281 L 70.472656 37.027344 L 70.472656 32.753906 L 62.945312 27.1875 C 62.300781 26.546875 61.441406 26.332031 60.367188 26.332031 " fill-opacity="1" fill-rule="nonzero"/></g><path stroke-linecap="round" transform="matrix(0.112379, 0, 0, -0.111802, 27.473042, 37.028941)" fill="none" stroke-linejoin="round" d="M 277.37845 325.190535 L 153.043237 38.237434 " stroke="#1a4363" stroke-width="10" stroke-opacity="1" stroke-miterlimit="10"/><path fill="#1a4363" d="M 66.167969 25.261719 C 65.523438 25.261719 65.09375 24.839844 65.09375 24.199219 L 65.09375 15.640625 C 65.09375 15 64.664062 14.570312 64.023438 14.570312 L 59.71875 14.570312 C 59.074219 14.570312 58.644531 15 58.644531 15.640625 L 58.644531 24.199219 C 58.644531 24.839844 58.214844 25.261719 57.570312 25.261719 C 56.929688 25.261719 56.5 24.839844 56.5 24.199219 L 56.5 15.640625 C 56.5 13.929688 58 12.433594 59.71875 12.433594 L 64.023438 12.433594 C 65.738281 12.433594 67.246094 13.929688 67.246094 15.640625 L 67.246094 24.199219 C 67.246094 24.839844 66.8125 25.261719 66.167969 25.261719 " fill-opacity="1" fill-rule="nonzero"/><path fill="#1a4363" d="M 46.824219 10.292969 L 36.074219 10.292969 C 35.425781 10.292969 34.996094 9.863281 34.996094 9.226562 C 34.996094 8.585938 35.425781 8.15625 36.074219 8.15625 L 46.824219 8.15625 C 47.46875 8.15625 47.894531 8.585938 47.894531 9.226562 C 47.894531 9.863281 47.46875 10.292969 46.824219 10.292969 Z M 65.09375 20.988281 L 58.644531 20.988281 C 58 20.988281 57.570312 20.558594 57.570312 19.917969 C 57.570312 19.277344 58 18.847656 58.644531 18.847656 L 65.09375 18.847656 C 65.738281 18.847656 66.167969 19.277344 66.167969 19.917969 C 66.167969 20.558594 65.738281 20.988281 65.09375 20.988281 " fill-opacity="1" fill-rule="nonzero"/><path fill="#1a4363" d="M 46.609375 23.128906 C 46.394531 23.128906 46.179688 23.128906 46.179688 22.914062 C 41.015625 20.34375 37.578125 15 37.363281 9.441406 C 37.363281 8.796875 37.792969 8.371094 38.4375 8.371094 C 39.085938 8.371094 39.515625 8.796875 39.515625 9.441406 C 39.730469 14.359375 42.738281 18.847656 47.253906 21.203125 C 47.679688 21.414062 47.894531 22.058594 47.679688 22.699219 C 47.253906 22.914062 46.824219 23.128906 46.609375 23.128906 " fill-opacity="1" fill-rule="nonzero"/><path fill="#1a4363" d="M 41.445312 10.292969 C 40.800781 10.292969 40.371094 9.863281 40.371094 9.226562 L 40.371094 7.085938 C 40.371094 6.445312 40.800781 6.015625 41.445312 6.015625 C 42.089844 6.015625 42.519531 6.445312 42.519531 7.085938 L 42.519531 9.226562 C 42.519531 9.863281 42.089844 10.292969 41.445312 10.292969 Z M 38.222656 21.414062 C 37.792969 21.414062 37.578125 21.203125 37.363281 20.988281 C 36.933594 20.558594 37.148438 19.917969 37.578125 19.488281 C 41.015625 17.140625 43.167969 13.5 43.382812 9.226562 C 43.382812 8.585938 43.8125 8.15625 44.457031 8.15625 C 45.101562 8.15625 45.53125 8.796875 45.53125 9.226562 C 45.316406 14.144531 42.738281 18.632812 38.652344 21.203125 C 38.652344 21.414062 38.4375 21.414062 38.222656 21.414062 " fill-opacity="1" fill-rule="nonzero"/></svg>